<?xml version="1.0" encoding="UTF-8"?><svg xmlns="http://www.w3.org/2000/svg" xmlns:xlink="http://www.w3.org/1999/xlink" fill-opacity="1" color-rendering="auto" color-interpolation="auto" text-rendering="auto" stroke="black" stroke-linecap="square" width="736" stroke-miterlimit="10" shape-rendering="auto" stroke-opacity="1" fill="black" stroke-dasharray="none" font-weight="normal" stroke-width="1" height="479" font-family="'Dialog'" font-style="normal" stroke-linejoin="miter" font-size="12px" stroke-dashoffset="0" image-rendering="auto">
  <!--Generated by ySVG 2.5-->
  <defs id="genericDefs"/>
  <g>
    <defs id="defs1">
      <linearGradient x1="715.8883" gradientUnits="userSpaceOnUse" x2="1420.8883" y1="254.8305" y2="690.6931" id="linearGradient1" spreadMethod="reflect">
        <stop stop-opacity="1" stop-color="gray" offset="0%"/>
        <stop stop-opacity="1" stop-color="gray" offset="100%"/>
      </linearGradient>
      <linearGradient x1="856.5333" gradientUnits="userSpaceOnUse" x2="936.5333" y1="322.9234" y2="372.9234" id="linearGradient2" spreadMethod="reflect">
        <stop stop-opacity="1" stop-color="rgb(232,238,247)" offset="0%"/>
        <stop stop-opacity="1" stop-color="rgb(183,201,227)" offset="100%"/>
      </linearGradient>
      <linearGradient x1="998.5333" gradientUnits="userSpaceOnUse" x2="1149.4933" y1="334.9234" y2="361.9234" id="linearGradient3" spreadMethod="reflect">
        <stop stop-opacity="1" stop-color="rgb(239,243,254)" offset="0%"/>
        <stop stop-opacity="1" stop-color="rgb(243,249,255)" offset="100%"/>
      </linearGradient>
      <linearGradient x1="998.5333" gradientUnits="userSpaceOnUse" x2="1149.4933" y1="374.9234" y2="401.9234" id="linearGradient4" spreadMethod="reflect">
        <stop stop-opacity="1" stop-color="rgb(239,243,254)" offset="0%"/>
        <stop stop-opacity="1" stop-color="rgb(243,249,255)" offset="100%"/>
      </linearGradient>
      <linearGradient x1="998.5333" gradientUnits="userSpaceOnUse" x2="1149.4933" y1="414.9234" y2="441.9234" id="linearGradient5" spreadMethod="reflect">
        <stop stop-opacity="1" stop-color="rgb(239,243,254)" offset="0%"/>
        <stop stop-opacity="1" stop-color="rgb(243,249,255)" offset="100%"/>
      </linearGradient>
      <linearGradient x1="998.5333" gradientUnits="userSpaceOnUse" x2="1149.4933" y1="454.9234" y2="481.9234" id="linearGradient6" spreadMethod="reflect">
        <stop stop-opacity="1" stop-color="rgb(239,243,254)" offset="0%"/>
        <stop stop-opacity="1" stop-color="rgb(243,249,255)" offset="100%"/>
      </linearGradient>
      <linearGradient x1="856.5333" gradientUnits="userSpaceOnUse" x2="936.5333" y1="498.4514" y2="548.4514" id="linearGradient7" spreadMethod="reflect">
        <stop stop-opacity="1" stop-color="rgb(232,238,247)" offset="0%"/>
        <stop stop-opacity="1" stop-color="rgb(183,201,227)" offset="100%"/>
      </linearGradient>
      <linearGradient x1="998.5333" gradientUnits="userSpaceOnUse" x2="1149.4933" y1="548.2914" y2="575.2914" id="linearGradient8" spreadMethod="reflect">
        <stop stop-opacity="1" stop-color="rgb(239,243,254)" offset="0%"/>
        <stop stop-opacity="1" stop-color="rgb(243,249,255)" offset="100%"/>
      </linearGradient>
      <linearGradient x1="998.5333" gradientUnits="userSpaceOnUse" x2="1149.4933" y1="509.9514" y2="536.9514" id="linearGradient9" spreadMethod="reflect">
        <stop stop-opacity="1" stop-color="rgb(239,243,254)" offset="0%"/>
        <stop stop-opacity="1" stop-color="rgb(243,249,255)" offset="100%"/>
      </linearGradient>
      <linearGradient x1="998.5333" gradientUnits="userSpaceOnUse" x2="1149.4933" y1="586.6314" y2="613.6314" id="linearGradient10" spreadMethod="reflect">
        <stop stop-opacity="1" stop-color="rgb(239,243,254)" offset="0%"/>
        <stop stop-opacity="1" stop-color="rgb(243,249,255)" offset="100%"/>
      </linearGradient>
      <linearGradient x1="998.5333" gradientUnits="userSpaceOnUse" x2="1149.4933" y1="624.9714" y2="651.9714" id="linearGradient11" spreadMethod="reflect">
        <stop stop-opacity="1" stop-color="rgb(239,243,254)" offset="0%"/>
        <stop stop-opacity="1" stop-color="rgb(243,249,255)" offset="100%"/>
      </linearGradient>
      <linearGradient x1="1163.8213" gradientUnits="userSpaceOnUse" x2="1314.7814" y1="491.2914" y2="518.2914" id="linearGradient12" spreadMethod="reflect">
        <stop stop-opacity="1" stop-color="rgb(239,243,254)" offset="0%"/>
        <stop stop-opacity="1" stop-color="rgb(243,249,255)" offset="100%"/>
      </linearGradient>
      <linearGradient x1="1163.8213" gradientUnits="userSpaceOnUse" x2="1314.7814" y1="529.6314" y2="556.6314" id="linearGradient13" spreadMethod="reflect">
        <stop stop-opacity="1" stop-color="rgb(239,243,254)" offset="0%"/>
        <stop stop-opacity="1" stop-color="rgb(243,249,255)" offset="100%"/>
      </linearGradient>
      <linearGradient x1="976.7333" gradientUnits="userSpaceOnUse" x2="1171.2933" y1="242.6662" y2="282.6662" id="linearGradient14" spreadMethod="reflect">
        <stop stop-opacity="1" stop-color="rgb(51,102,255)" offset="0%"/>
        <stop stop-opacity="1" stop-color="rgb(51,51,153)" offset="100%"/>
      </linearGradient>
      <clipPath clipPathUnits="userSpaceOnUse" id="clipPath1">
        <path d="M0 0 L736 0 L736 479 L0 479 L0 0 Z"/>
      </clipPath>
      <clipPath clipPathUnits="userSpaceOnUse" id="clipPath2">
        <path d="M700 227 L1436 227 L1436 706 L700 706 L700 227 Z"/>
      </clipPath>
    </defs>
    <g fill="url(#linearGradient1)" text-rendering="geometricPrecision" shape-rendering="geometricPrecision" transform="matrix(1,0,0,1,-700,-227)" stroke="url(#linearGradient1)">
      <rect x="715.8883" width="705" height="435.8625" y="254.8305" clip-path="url(#clipPath2)" stroke="none"/>
    </g>
    <g text-rendering="geometricPrecision" stroke-miterlimit="1.45" shape-rendering="geometricPrecision" transform="matrix(1,0,0,1,-700,-227)" stroke-linecap="butt">
      <rect fill="none" x="715.8883" width="705" height="435.8625" y="254.8305" clip-path="url(#clipPath2)"/>
    </g>
    <g fill="white" text-rendering="geometricPrecision" shape-rendering="geometricPrecision" transform="matrix(1,0,0,1,-700,-227)" stroke="white">
      <rect x="727.1383" width="693.75" height="428.3625" y="262.3305" clip-path="url(#clipPath2)" stroke="none"/>
    </g>
    <g text-rendering="geometricPrecision" stroke-miterlimit="1.45" shape-rendering="geometricPrecision" transform="matrix(1,0,0,1,-700,-227)" stroke-linecap="butt">
      <rect fill="none" x="727.1383" width="693.75" height="428.3625" y="262.3305" clip-path="url(#clipPath2)"/>
    </g>
    <g fill="url(#linearGradient2)" text-rendering="geometricPrecision" shape-rendering="geometricPrecision" transform="matrix(1,0,0,1,-700,-227)" stroke="url(#linearGradient2)">
      <path d="M866.5333 349.4234 C856.5333 335.4234 866.5333 322.9234 882.9333 331.9234 C882.9333 322.9234 910.1333 322.9234 910.1333 331.9234 C926.5333 322.9234 936.5333 335.4234 926.5333 346.4234 C936.5333 360.4234 926.5333 372.9234 914.1333 363.9234 C910.1333 372.9234 882.9333 372.9234 886.9333 363.9234 C866.5333 372.9234 856.5333 360.4234 866.5333 349.4234 Z" stroke="none" clip-path="url(#clipPath2)"/>
    </g>
    <g text-rendering="geometricPrecision" stroke-miterlimit="1.45" shape-rendering="geometricPrecision" transform="matrix(1,0,0,1,-700,-227)" stroke-linecap="butt">
      <path fill="none" d="M866.5333 349.4234 C856.5333 335.4234 866.5333 322.9234 882.9333 331.9234 C882.9333 322.9234 910.1333 322.9234 910.1333 331.9234 C926.5333 322.9234 936.5333 335.4234 926.5333 346.4234 C936.5333 360.4234 926.5333 372.9234 914.1333 363.9234 C910.1333 372.9234 882.9333 372.9234 886.9333 363.9234 C866.5333 372.9234 856.5333 360.4234 866.5333 349.4234 Z" clip-path="url(#clipPath2)"/>
      <text x="873.8663" xml:space="preserve" y="352.6373" clip-path="url(#clipPath2)" font-family="sans-serif" stroke="none">WillCore</text>
    </g>
    <g fill="url(#linearGradient3)" text-rendering="geometricPrecision" shape-rendering="geometricPrecision" transform="matrix(1,0,0,1,-700,-227)" stroke="url(#linearGradient3)">
      <path d="M1005.2833 334.9234 L1142.7433 334.9234 L1149.4933 348.4234 L1142.7433 361.9234 L1005.2833 361.9234 L998.5333 348.4234 Z" stroke="none" clip-path="url(#clipPath2)"/>
    </g>
    <g text-rendering="geometricPrecision" stroke-miterlimit="1.45" shape-rendering="geometricPrecision" transform="matrix(1,0,0,1,-700,-227)" stroke-linecap="butt">
      <path fill="none" d="M1005.2833 334.9234 L1142.7433 334.9234 L1149.4933 348.4234 L1142.7433 361.9234 L1005.2833 361.9234 L998.5333 348.4234 Z" clip-path="url(#clipPath2)"/>
      <text x="1016.3248" xml:space="preserve" y="353.1373" clip-path="url(#clipPath2)" font-family="sans-serif" stroke="none">Index HTMLElements</text>
    </g>
    <g fill="url(#linearGradient4)" text-rendering="geometricPrecision" shape-rendering="geometricPrecision" transform="matrix(1,0,0,1,-700,-227)" stroke="url(#linearGradient4)">
      <path d="M1005.2833 374.9234 L1142.7433 374.9234 L1149.4933 388.4234 L1142.7433 401.9234 L1005.2833 401.9234 L998.5333 388.4234 Z" stroke="none" clip-path="url(#clipPath2)"/>
    </g>
    <g text-rendering="geometricPrecision" stroke-miterlimit="1.45" shape-rendering="geometricPrecision" transform="matrix(1,0,0,1,-700,-227)" stroke-linecap="butt">
      <path fill="none" d="M1005.2833 374.9234 L1142.7433 374.9234 L1149.4933 388.4234 L1142.7433 401.9234 L1005.2833 401.9234 L998.5333 388.4234 Z" clip-path="url(#clipPath2)"/>
      <text x="1031.3278" xml:space="preserve" y="393.1373" clip-path="url(#clipPath2)" font-family="sans-serif" stroke="none">View Definitions</text>
    </g>
    <g fill="url(#linearGradient5)" text-rendering="geometricPrecision" shape-rendering="geometricPrecision" transform="matrix(1,0,0,1,-700,-227)" stroke="url(#linearGradient5)">
      <path d="M1005.2833 414.9234 L1142.7433 414.9234 L1149.4933 428.4234 L1142.7433 441.9234 L1005.2833 441.9234 L998.5333 428.4234 Z" stroke="none" clip-path="url(#clipPath2)"/>
    </g>
    <g text-rendering="geometricPrecision" stroke-miterlimit="1.45" shape-rendering="geometricPrecision" transform="matrix(1,0,0,1,-700,-227)" stroke-linecap="butt">
      <path fill="none" d="M1005.2833 414.9234 L1142.7433 414.9234 L1149.4933 428.4234 L1142.7433 441.9234 L1005.2833 441.9234 L998.5333 428.4234 Z" clip-path="url(#clipPath2)"/>
      <text x="1038.3268" xml:space="preserve" y="433.1373" clip-path="url(#clipPath2)" font-family="sans-serif" stroke="none">View Layouts</text>
    </g>
    <g fill="url(#linearGradient6)" text-rendering="geometricPrecision" shape-rendering="geometricPrecision" transform="matrix(1,0,0,1,-700,-227)" stroke="url(#linearGradient6)">
      <path d="M1005.2833 454.9234 L1142.7433 454.9234 L1149.4933 468.4234 L1142.7433 481.9234 L1005.2833 481.9234 L998.5333 468.4234 Z" stroke="none" clip-path="url(#clipPath2)"/>
    </g>
    <g text-rendering="geometricPrecision" stroke-miterlimit="1.45" shape-rendering="geometricPrecision" transform="matrix(1,0,0,1,-700,-227)" stroke-linecap="butt">
      <path fill="none" d="M1005.2833 454.9234 L1142.7433 454.9234 L1149.4933 468.4234 L1142.7433 481.9234 L1005.2833 481.9234 L998.5333 468.4234 Z" clip-path="url(#clipPath2)"/>
      <text x="1053.3326" xml:space="preserve" y="473.1373" clip-path="url(#clipPath2)" font-family="sans-serif" stroke="none">Routing</text>
    </g>
    <g fill="url(#linearGradient7)" text-rendering="geometricPrecision" shape-rendering="geometricPrecision" transform="matrix(1,0,0,1,-700,-227)" stroke="url(#linearGradient7)">
      <path d="M866.5333 524.9514 C856.5333 510.9514 866.5333 498.4514 882.9333 507.4514 C882.9333 498.4514 910.1333 498.4514 910.1333 507.4514 C926.5333 498.4514 936.5333 510.9514 926.5333 521.9514 C936.5333 535.9514 926.5333 548.4514 914.1333 539.4514 C910.1333 548.4514 882.9333 548.4514 886.9333 539.4514 C866.5333 548.4514 856.5333 535.9514 866.5333 524.9514 Z" stroke="none" clip-path="url(#clipPath2)"/>
    </g>
    <g text-rendering="geometricPrecision" stroke-miterlimit="1.45" shape-rendering="geometricPrecision" transform="matrix(1,0,0,1,-700,-227)" stroke-linecap="butt">
      <path fill="none" d="M866.5333 524.9514 C856.5333 510.9514 866.5333 498.4514 882.9333 507.4514 C882.9333 498.4514 910.1333 498.4514 910.1333 507.4514 C926.5333 498.4514 936.5333 510.9514 926.5333 521.9514 C936.5333 535.9514 926.5333 548.4514 914.1333 539.4514 C910.1333 548.4514 882.9333 548.4514 886.9333 539.4514 C866.5333 548.4514 856.5333 535.9514 866.5333 524.9514 Z" clip-path="url(#clipPath2)"/>
      <text x="883.5284" xml:space="preserve" y="528.1653" clip-path="url(#clipPath2)" font-family="sans-serif" stroke="none">View</text>
    </g>
    <g fill="url(#linearGradient8)" text-rendering="geometricPrecision" shape-rendering="geometricPrecision" transform="matrix(1,0,0,1,-700,-227)" stroke="url(#linearGradient8)">
      <path d="M1005.2833 548.2914 L1142.7433 548.2914 L1149.4933 561.7914 L1142.7433 575.2914 L1005.2833 575.2914 L998.5333 561.7914 Z" stroke="none" clip-path="url(#clipPath2)"/>
    </g>
    <g text-rendering="geometricPrecision" stroke-miterlimit="1.45" shape-rendering="geometricPrecision" transform="matrix(1,0,0,1,-700,-227)" stroke-linecap="butt">
      <path fill="none" d="M1005.2833 548.2914 L1142.7433 548.2914 L1149.4933 561.7914 L1142.7433 575.2914 L1005.2833 575.2914 L998.5333 561.7914 Z" clip-path="url(#clipPath2)"/>
      <text x="1017.9977" xml:space="preserve" y="566.5053" clip-path="url(#clipPath2)" font-family="sans-serif" stroke="none">View HTMLElements</text>
    </g>
    <g fill="url(#linearGradient9)" text-rendering="geometricPrecision" shape-rendering="geometricPrecision" transform="matrix(1,0,0,1,-700,-227)" stroke="url(#linearGradient9)">
      <path d="M1005.2833 509.9514 L1142.7433 509.9514 L1149.4933 523.4514 L1142.7433 536.9514 L1005.2833 536.9514 L998.5333 523.4514 Z" stroke="none" clip-path="url(#clipPath2)"/>
    </g>
    <g text-rendering="geometricPrecision" stroke-miterlimit="1.45" shape-rendering="geometricPrecision" transform="matrix(1,0,0,1,-700,-227)" stroke-linecap="butt">
      <path fill="none" d="M1005.2833 509.9514 L1142.7433 509.9514 L1149.4933 523.4514 L1142.7433 536.9514 L1005.2833 536.9514 L998.5333 523.4514 Z" clip-path="url(#clipPath2)"/>
      <text x="1030.3258" xml:space="preserve" y="528.1653" clip-path="url(#clipPath2)" font-family="sans-serif" stroke="none">Data Collections</text>
    </g>
    <g fill="url(#linearGradient10)" text-rendering="geometricPrecision" shape-rendering="geometricPrecision" transform="matrix(1,0,0,1,-700,-227)" stroke="url(#linearGradient10)">
      <path d="M1005.2833 586.6314 L1142.7433 586.6314 L1149.4933 600.1314 L1142.7433 613.6314 L1005.2833 613.6314 L998.5333 600.1314 Z" stroke="none" clip-path="url(#clipPath2)"/>
    </g>
    <g text-rendering="geometricPrecision" stroke-miterlimit="1.45" shape-rendering="geometricPrecision" transform="matrix(1,0,0,1,-700,-227)" stroke-linecap="butt">
      <path fill="none" d="M1005.2833 586.6314 L1142.7433 586.6314 L1149.4933 600.1314 L1142.7433 613.6314 L1005.2833 613.6314 L998.5333 600.1314 Z" clip-path="url(#clipPath2)"/>
      <text x="1032.9977" xml:space="preserve" y="604.8453" clip-path="url(#clipPath2)" font-family="sans-serif" stroke="none">HTML Bindings</text>
    </g>
    <g fill="url(#linearGradient11)" text-rendering="geometricPrecision" shape-rendering="geometricPrecision" transform="matrix(1,0,0,1,-700,-227)" stroke="url(#linearGradient11)">
      <path d="M1005.2833 624.9714 L1142.7433 624.9714 L1149.4933 638.4714 L1142.7433 651.9714 L1005.2833 651.9714 L998.5333 638.4714 Z" stroke="none" clip-path="url(#clipPath2)"/>
    </g>
    <g text-rendering="geometricPrecision" stroke-miterlimit="1.45" shape-rendering="geometricPrecision" transform="matrix(1,0,0,1,-700,-227)" stroke-linecap="butt">
      <path fill="none" d="M1005.2833 624.9714 L1142.7433 624.9714 L1149.4933 638.4714 L1142.7433 651.9714 L1005.2833 651.9714 L998.5333 638.4714 Z" clip-path="url(#clipPath2)"/>
      <text x="1055.6705" xml:space="preserve" y="643.1853" clip-path="url(#clipPath2)" font-family="sans-serif" stroke="none">Events</text>
    </g>
    <g fill="url(#linearGradient12)" text-rendering="geometricPrecision" shape-rendering="geometricPrecision" transform="matrix(1,0,0,1,-700,-227)" stroke="url(#linearGradient12)">
      <path d="M1170.5713 491.2914 L1308.0314 491.2914 L1314.7814 504.7914 L1308.0314 518.2914 L1170.5713 518.2914 L1163.8213 504.7914 Z" stroke="none" clip-path="url(#clipPath2)"/>
    </g>
    <g text-rendering="geometricPrecision" stroke-miterlimit="1.45" shape-rendering="geometricPrecision" transform="matrix(1,0,0,1,-700,-227)" stroke-linecap="butt">
      <path fill="none" d="M1170.5713 491.2914 L1308.0314 491.2914 L1314.7814 504.7914 L1308.0314 518.2914 L1170.5713 518.2914 L1163.8213 504.7914 Z" clip-path="url(#clipPath2)"/>
      <text x="1190.9468" xml:space="preserve" y="509.5053" clip-path="url(#clipPath2)" font-family="sans-serif" stroke="none">Collection Targets</text>
    </g>
    <g fill="url(#linearGradient13)" text-rendering="geometricPrecision" shape-rendering="geometricPrecision" transform="matrix(1,0,0,1,-700,-227)" stroke="url(#linearGradient13)">
      <path d="M1170.5713 529.6314 L1308.0314 529.6314 L1314.7814 543.1314 L1308.0314 556.6314 L1170.5713 556.6314 L1163.8213 543.1314 Z" stroke="none" clip-path="url(#clipPath2)"/>
    </g>
    <g text-rendering="geometricPrecision" stroke-miterlimit="1.45" shape-rendering="geometricPrecision" transform="matrix(1,0,0,1,-700,-227)" stroke-linecap="butt">
      <path fill="none" d="M1170.5713 529.6314 L1308.0314 529.6314 L1314.7814 543.1314 L1308.0314 556.6314 L1170.5713 556.6314 L1163.8213 543.1314 Z" clip-path="url(#clipPath2)"/>
      <text x="1189.2769" xml:space="preserve" y="547.8453" clip-path="url(#clipPath2)" font-family="sans-serif" stroke="none">Collection Sources</text>
    </g>
    <g fill="url(#linearGradient14)" text-rendering="geometricPrecision" shape-rendering="geometricPrecision" transform="matrix(1,0,0,1,-700,-227)" stroke="url(#linearGradient14)">
      <path d="M976.7333 242.6662 L1171.2933 242.6662 L1161.2933 262.6662 L1171.2933 282.6662 L976.7333 282.6662 L986.7333 262.6662 Z" stroke="none" clip-path="url(#clipPath2)"/>
    </g>
    <g text-rendering="geometricPrecision" stroke-miterlimit="1.45" shape-rendering="geometricPrecision" transform="matrix(1,0,0,1,-700,-227)" stroke-linecap="butt">
      <path fill="none" d="M976.7333 242.6662 L1171.2933 242.6662 L1161.2933 262.6662 L1171.2933 282.6662 L976.7333 282.6662 L986.7333 262.6662 Z" clip-path="url(#clipPath2)"/>
    </g>
    <g stroke-linecap="butt" transform="matrix(1,0,0,1,-700,-227)" fill="white" text-rendering="geometricPrecision" font-family="sans-serif" shape-rendering="geometricPrecision" stroke="white" font-weight="bold" stroke-miterlimit="1.45">
      <text x="1005.0016" xml:space="preserve" y="267.3801" clip-path="url(#clipPath2)" stroke="none">WillCore.UI Architecture</text>
    </g>
    <g text-rendering="geometricPrecision" stroke-miterlimit="1.45" shape-rendering="geometricPrecision" transform="matrix(1,0,0,1,-700,-227)" stroke-linecap="butt">
      <path fill="none" d="M927.601 348.011 L990.6267 348.1885" clip-path="url(#clipPath2)"/>
    </g>
    <g text-rendering="geometricPrecision" stroke-miterlimit="1.45" shape-rendering="geometricPrecision" transform="matrix(1,0,0,1,-700,-227)" stroke-linecap="butt">
      <path d="M998.6266 348.2111 L986.6408 343.1772 L989.6267 348.1857 L986.6126 353.1772 Z" stroke="none" clip-path="url(#clipPath2)"/>
      <path fill="none" d="M998.5413 388.4234 L916.5333 388.4234 L916.5333 373.3888" clip-path="url(#clipPath2)"/>
      <path d="M916.5333 365.3888 L911.5333 377.3888 L916.5333 374.3888 L921.5333 377.3888 Z" clip-path="url(#clipPath2)" stroke="none"/>
      <path fill="none" d="M998.5757 428.4234 L896.5333 428.4234 L896.5333 378.65" clip-path="url(#clipPath2)"/>
      <path d="M896.5333 370.65 L891.5333 382.65 L896.5333 379.65 L901.5333 382.65 Z" clip-path="url(#clipPath2)" stroke="none"/>
      <path fill="none" d="M998.5585 468.4234 L877.5333 468.4234 L877.5333 374.7505" clip-path="url(#clipPath2)"/>
      <path d="M877.5333 366.7505 L872.5333 378.7505 L877.5333 375.7505 L882.5333 378.7505 Z" clip-path="url(#clipPath2)" stroke="none"/>
      <path fill="none" d="M920.5685 542.3623 L920.5685 561.7914 L990.5272 561.7914" clip-path="url(#clipPath2)"/>
      <path d="M998.5272 561.7914 L986.5272 556.7914 L989.5272 561.7914 L986.5272 566.7914 Z" clip-path="url(#clipPath2)" stroke="none"/>
      <path fill="none" d="M927.5143 523.4514 L990.5106 523.4514" clip-path="url(#clipPath2)"/>
      <path d="M998.5106 523.4514 L986.5106 518.4514 L989.5106 523.4514 L986.5106 528.4514 Z" clip-path="url(#clipPath2)" stroke="none"/>
      <path fill="none" d="M998.5757 600.1314 L896.5333 600.1314 L896.5333 554.2091" clip-path="url(#clipPath2)"/>
      <path d="M896.5333 546.2091 L891.5333 558.2091 L896.5333 555.2091 L901.5333 558.2091 Z" clip-path="url(#clipPath2)" stroke="none"/>
      <path fill="none" d="M998.5712 638.4714 L872.4406 638.4714 L872.4406 550.4623" clip-path="url(#clipPath2)"/>
      <path d="M872.4406 542.4623 L867.4406 554.4623 L872.4406 551.4623 L877.4406 554.4623 Z" clip-path="url(#clipPath2)" stroke="none"/>
      <path fill="none" d="M1146.553 517.5148 L1159.0444 513.0433" clip-path="url(#clipPath2)"/>
      <path d="M1166.5764 510.347 L1153.5934 509.6839 L1158.103 513.3803 L1156.9636 519.0989 Z" clip-path="url(#clipPath2)" stroke="none"/>
      <path fill="none" d="M1146.7207 529.072 L1159.8055 533.3849" clip-path="url(#clipPath2)"/>
      <path d="M1167.4034 535.8893 L1157.5719 527.3841 L1158.8558 533.0719 L1154.4414 536.8814 Z" clip-path="url(#clipPath2)" stroke="none"/>
    </g>
  </g>
</svg>
